<svg xmlns="http://www.w3.org/2000/svg" viewBox="0 0 24 24" fill="none">
  <path d="M12 15.2a3.2 3.2 0 1 0 0-6.4 3.2 3.2 0 0 0 0 6.4z" stroke="#8b95a5" stroke-width="1.75"/>
  <path d="M19.4 13.5l1.2 1a1 1 0 0 0 .2 1.3l-1.1 1.9a1 1 0 0 1-1.2.4l-1.4-.5a7.2 7.2 0 0 1-1.2.7l-.2 1.5a1 1 0 0 1-1 .9h-2.2a1 1 0 0 1-1-.8l-.2-1.5a7.2 7.2 0 0 1-1.2-.7l-1.4.5a1 1 0 0 1-1.2-.4l-1.1-1.9a1 1 0 0 0 .2-1.3l1.2-1a7.2 7.2 0 0 1 0-1.4l-1.2-1a1 1 0 0 1-.2-1.3l1.1-1.9a1 1 0 0 1 1.2-.4l1.4.5a7.2 7.2 0 0 1 1.2-.7l.2-1.5a1 1 0 0 1 1-.9h2.2a1 1 0 0 1 1 .8l.2 1.5a7.2 7.2 0 0 1 1.2.7l1.4-.5a1 1 0 0 1 1.2.4l1.1 1.9a1 1 0 0 1-.2 1.3l-1.2 1c0 .47 0 .93 0 1.4z" stroke="#8b95a5" stroke-width="1.75" stroke-linejoin="round"/>
</svg>
